<svg width="1412" height="480" viewBox="0 0 1412 480" fill="none" xmlns="http://www.w3.org/2000/svg">
<path d="M984.374 131.298C1200.97 106.714 1370.39 96.9507 1401 107C1431.61 117.049 1386.5 226 1373 245C1359.5 264 1352 263 1345.4 265.584C1338.8 268.168 1298.87 280.226 1255.32 286.444C1253.58 286.697 1238.19 265.29 1238.19 265.29L1160.43 301.409L1066.85 316.274C1066.85 316.274 1062.68 328.342 1059.81 328.809C1048.06 330.703 496.098 420.181 462.842 425.577C448.051 427.967 431.692 407.196 413.406 410.16C405.339 411.464 326.782 422.87 300.43 427.152C274.077 431.42 272.443 432.525 272.443 432.525L274.946 447.956C266.498 449.694 130.754 476.468 113.516 479.251C107.838 480.543 77.5 461.499 77.5 461.499L29.4999 465.499C29.4999 465.499 69.4999 429.498 70.4999 417.499C71.4999 405.5 42.4999 378.5 53.9999 366C65.4998 353.5 150.863 312.403 150.863 312.403C159.5 301.499 123.5 293.499 94.4999 281.499L984.374 131.298Z" fill="white"/>
<path d="M913.26 77.2233L1018.34 133.647L425.073 239.119C425.073 239.119 495.912 154.041 512.834 135.844C529.753 117.648 535.781 104.887 557.545 98.4204C574.685 93.3181 773.83 49.8459 826.891 48.5979C858.116 47.8636 913.26 77.2233 913.26 77.2233Z" fill="white"/>
<circle cx="349.666" cy="403.961" r="70" transform="rotate(-4.78939 349.666 403.961)" fill="white"/>
<circle cx="1164.01" cy="310.175" r="79.5" transform="rotate(-4.78939 1164.01 310.175)" fill="white"/>
</svg>
